<svg width="42" height="35" viewBox="0 0 42 35" fill="none" xmlns="http://www.w3.org/2000/svg">
<path d="M33.5604 11.5334C36.2096 7.50421 37.5342 3.00105 37.6547 -1.85763C37.6547 -3.16118 36.3301 -3.6352 35.3667 -3.16118C31.6337 -1.50212 27.6599 1.22348 23.6861 -0.909599C20.6757 -2.56866 17.7856 -4.82024 14.8956 -6.71632C14.4139 -7.07183 13.9322 -7.07183 13.571 -6.83482C12.9689 -6.71632 12.4872 -6.2423 12.3668 -5.41277C11.7647 -0.435581 12.126 4.66011 13.2097 9.63729C10.0789 10.7038 6.94797 11.8889 3.93752 13.4294C2.25166 14.259 -0.517964 15.207 0.0841277 17.4586C0.565801 19.5917 3.8171 20.1842 5.62337 20.6582C8.99509 21.4877 12.3668 21.8432 15.7385 21.7247C15.9794 26.3464 17.4244 30.6126 20.3144 34.2862C20.9165 35.1157 22.3615 35.3528 22.9636 34.2862C23.927 32.2716 25.0107 30.3756 25.9741 28.361C26.817 26.8204 28.1416 22.6728 29.8275 22.1988C31.2725 21.8433 33.1992 23.1468 34.7646 23.6208C36.5709 24.0948 38.4976 24.2133 40.4243 24.2133C41.1468 24.2133 42.1101 23.5023 41.9897 22.6728C41.2672 17.4586 37.5342 14.259 33.5604 11.5334ZM35.4871 20.5397C33.9217 20.0657 32.4767 19.1176 30.9112 18.7621C29.8275 18.5251 28.8641 18.4066 27.7804 18.9991C25.9741 20.0657 25.0107 23.0283 24.1678 24.8059C23.2045 26.7019 22.2411 28.598 21.2778 30.4941C19.3511 27.2945 18.5081 23.8578 18.6286 20.0657C18.6286 19.2362 17.906 18.5251 17.0631 18.5251C15.016 18.6436 13.0893 18.7621 11.0422 18.5251C9.47676 18.4066 5.02128 18.0511 3.57626 17.2216C2.73333 17.3401 2.61291 17.3401 3.45584 16.9846C3.8171 16.7476 4.29877 16.5105 4.66003 16.392C5.74379 15.918 6.70714 15.3255 7.7909 14.8515C10.1993 13.785 12.7281 12.9554 15.2568 12.1259C16.0998 11.8889 16.5814 11.0593 16.3406 10.2298C15.2568 5.84515 14.8956 1.46049 15.016 -3.04268C16.7019 -1.97614 18.3877 -0.791094 20.0736 0.275445C21.639 1.34198 23.5657 3.11955 25.6128 3.47506C28.262 3.83058 31.5133 2.05301 34.1625 0.630959C33.6809 4.18609 32.3563 7.38571 30.3091 10.4668C29.9479 11.0593 29.9479 11.5334 30.3091 12.0074C30.1887 12.5999 30.4296 13.1924 31.0316 13.5479C33.9217 15.444 37.173 17.6956 38.3772 21.0137C37.5342 21.0137 36.4505 20.8952 35.4871 20.5397Z" fill="#C1C1C1"/>
</svg>
