<svg width="102" height="54" viewBox="0 0 102 54" fill="none" xmlns="http://www.w3.org/2000/svg">
<path d="M101.182 37.8393C100.835 36.179 100.28 34.588 99.587 33.0661C99.0322 31.821 98.3388 30.7141 97.6454 29.7457C97.6454 29.5381 97.5067 29.2614 97.2987 29.2614C95.4958 27.0478 93.2075 25.4568 90.2951 24.5575C85.5799 23.1048 80.1712 22.6897 75.1786 23.4507C72.1275 18.0549 69.0765 12.7284 66.0254 7.33265C65.8867 7.26348 65.8174 7.1943 65.6787 7.05595C67.6203 6.57172 69.4232 5.74161 70.81 4.21974C71.5728 3.38962 72.2662 2.0061 70.8793 1.4527C70.1166 1.10682 69.0765 1.31434 68.2444 1.38352C68.2444 1.24517 68.175 1.17599 68.1057 1.03764C68.1057 0.830112 68.0363 0.760936 67.967 0.69176C67.3429 0.069176 66.0947 0.069176 65.2626 0C64.4305 0 63.5291 0 62.905 0.553408C62.6276 0.69176 62.3503 0.899288 62.1423 1.24517C61.7955 1.79858 61.9342 2.49034 62.4196 2.90539C62.5583 3.04374 62.697 3.11292 62.905 3.11292C63.4597 3.25127 64.0838 3.11292 64.6386 3.04374C65.4013 2.97457 66.2334 2.97457 66.9962 2.83622C67.2042 2.76704 67.4122 2.69786 67.6203 2.55951C67.6896 2.55951 67.8283 2.49034 67.8976 2.49034C68.1057 2.49034 68.2443 2.49034 68.4524 2.49034C68.8684 2.49034 69.2845 2.42116 69.6312 2.42116C68.8684 4.84232 64.6386 5.60326 62.3503 6.08749C62.3503 6.01831 62.3503 5.94913 62.3503 5.87996C62.3503 5.53408 62.0036 5.32655 61.6569 5.32655C59.9926 5.39573 58.2591 5.4649 56.5949 5.53408H56.5255C56.2482 5.1882 55.5548 5.25737 55.3467 5.81078C55.0694 6.77925 54.5146 8.85453 56.1095 9.06205H56.1788C56.2482 9.06205 56.2482 9.06205 56.3175 9.13123C58.1898 9.33876 60.5474 9.20041 61.7262 7.81689C61.7955 7.74771 61.8649 7.67853 61.9342 7.60936C62.6276 7.54018 63.3904 7.47101 64.0838 7.33265C64.9853 8.99288 65.8867 10.5839 66.8575 12.2442L31.4237 15.2187C30.0369 13.0051 28.5113 10.8606 26.7778 8.9237C27.2632 8.71617 27.8179 8.57782 28.3033 8.37029C30.661 7.60936 33.5733 6.43337 36.0696 7.05595C36.4857 7.1943 36.8324 6.9176 36.9711 6.57172C37.0404 6.50254 37.1098 6.36419 37.1098 6.22584C37.1098 6.15666 37.1098 6.08749 37.1098 6.08749C37.2485 5.67243 37.1098 5.32655 36.8324 5.04985C36.4163 4.35809 35.7229 3.94303 34.7521 3.66633C32.1865 3.11292 29.6208 3.4588 27.1245 2.97457C24.9056 2.55951 19.6356 1.93693 18.3874 4.63479L18.3181 4.70397C16.3765 7.95524 18.2487 10.4456 21.8545 10.1689C22.964 10.0997 24.0041 9.82299 24.9749 9.47711C24.9749 9.54629 25.0442 9.68464 25.1136 9.75381C26.8471 11.6907 28.3727 13.766 29.7595 15.9105C29.6902 16.1872 29.7595 16.5331 29.9675 16.7406C28.9274 20.4069 27.8873 24.0732 26.8471 27.7396C22.3399 26.7711 17.3473 26.7019 12.9787 27.532C12.7707 27.6012 12.632 27.6704 12.5627 27.8087C9.85833 28.5697 7.63939 30.2299 5.97518 32.3052C2.43873 35.9715 0.219787 40.883 0.0117606 46.002C-0.196266 51.882 2.36939 57.4852 6.59926 61.4283C9.23425 64.2645 12.632 66.409 16.3765 67.3774C18.11 67.7925 19.9129 68 21.7158 68H21.7852C21.8545 68 21.9932 68 22.0625 68C22.756 68 23.4494 67.9308 24.0735 67.7925C29.8982 67.0315 35.4456 63.7111 38.3579 58.5229C39.0513 57.2777 39.5367 55.8942 39.8834 54.5107C41.3396 54.7182 42.7958 54.8566 44.252 54.9949C44.7374 55.0641 45.2228 55.0641 45.7082 55.0641C45.5002 56.1017 45.2921 57.1394 45.0841 58.177L43.1425 58.3154C42.0331 58.3845 42.1717 60.1139 43.2812 59.9756L47.7191 59.5605C48.8286 59.4913 48.6899 57.7619 47.5804 57.9003L45.9855 58.0387C46.1936 57.001 46.4016 56.0326 46.5403 54.9949C46.679 54.9949 46.8177 54.9949 46.887 54.9949C48.6899 55.1333 50.4928 54.9949 52.0877 54.1648C54.3066 53.058 55.3467 51.1211 55.4161 49.115C55.4854 48.5615 55.5548 48.0081 55.4854 47.4547V47.3856C55.4854 47.2472 55.4854 47.1088 55.4854 47.0397C55.4854 46.9013 55.4161 46.763 55.3467 46.763C54.9307 45.0336 53.8212 43.5117 52.4344 42.4049C55.208 39.4995 57.9124 36.5941 60.478 33.6195C62.2809 31.4751 63.9451 29.1923 65.8174 27.1862C67.759 25.1109 69.8392 23.174 71.9195 21.3062C72.4049 22.1363 72.8903 22.9664 73.3757 23.7965C73.3063 23.7965 73.3063 23.8657 73.3063 23.8657C73.237 23.8657 73.1676 23.8657 73.0983 23.8657C72.9596 23.8657 72.8903 23.9349 72.8209 24.0732C66.0254 26.2177 62.697 33.9654 61.9342 40.8138C61.4488 45.1027 61.8649 49.4608 64.2225 53.1963C66.5801 56.8627 70.4633 59.9064 74.3465 61.9817C75.3172 62.4659 76.2187 62.881 77.1895 63.2269C77.2588 63.5727 77.6749 63.6419 77.8829 63.4344C78.6457 63.6419 79.4084 63.7803 80.1712 63.9186C81.9741 64.2645 83.8463 64.4028 85.7186 64.057C91.1272 63.1577 95.6345 59.7681 98.4775 55.2024C101.529 50.2218 103.054 43.5117 101.182 37.8393ZM24.4895 4.56562C22.8253 4.42726 21.2304 3.87386 19.6356 4.35809C21.4385 2.62869 26.5004 3.80468 28.1646 4.01221C29.2048 4.15056 31.3544 4.01221 33.1573 4.21974C32.1865 4.21974 31.285 4.21974 30.9383 4.21974C28.7887 4.42726 26.6391 4.77314 24.4895 4.56562ZM31.3544 18.4008C33.0879 21.4446 34.6135 24.5575 36.2083 27.6012L42.6571 40.1221C41.825 40.1221 40.9929 40.2604 40.1608 40.3296C39.9528 39.707 39.7448 39.0153 39.5367 38.3927C39.19 36.8708 38.4966 35.4873 37.4565 34.3113C35.5842 31.5443 33.0186 29.469 29.5515 28.3622C29.2048 28.2238 28.8581 28.1546 28.5113 28.0855C29.4821 24.9034 30.3836 21.6521 31.3544 18.4008ZM3.89492 38.8077C4.17228 38.3235 4.44965 37.8393 4.72702 37.355L12.3546 45.2411C9.23425 44.3418 5.97518 43.65 2.7161 43.3042C2.92413 41.9898 3.27084 40.6755 3.61755 39.4303C3.75623 39.2228 3.82557 39.0153 3.89492 38.8077ZM11.3839 45.8637C8.33281 46.4171 5.3511 46.9705 2.30005 47.5239C2.30005 46.4171 2.36939 45.3103 2.57742 44.1343C5.55913 44.4802 8.54083 45.1027 11.3839 45.8637ZM13.2561 46.3479C13.3254 46.3479 13.3948 46.4171 13.5335 46.4171C13.9495 46.9013 14.4349 47.3164 14.851 47.8006C14.6429 48.1465 14.5043 48.4924 14.2962 48.8382C10.8291 50.8443 7.43136 52.8505 3.89492 54.8566C2.99347 52.9888 2.43873 50.9827 2.36939 48.8382C2.36939 48.6999 2.36939 48.4924 2.36939 48.2848C5.97518 47.6623 9.65031 47.0397 13.2561 46.3479ZM38.9127 52.5046C38.0806 52.297 37.2485 52.0203 36.4163 51.8128C33.3653 50.9827 30.2449 50.0834 27.1938 49.1841C26.6391 48.354 26.1537 47.5239 25.599 46.6246C25.599 46.5554 25.6683 46.4863 25.6683 46.4171C26.0844 46.2096 26.5004 45.9329 26.8471 45.7253C30.869 48.0081 34.8908 50.2909 38.9127 52.5046C38.9127 52.4354 38.9127 52.4354 38.9127 52.5046ZM38.4966 53.8189C36.0696 53.473 33.712 53.058 31.285 52.5737C30.5223 52.4354 29.7595 52.2971 28.9967 52.0895C28.7887 51.8128 28.65 51.5361 28.5113 51.2594C31.8398 52.2279 35.1682 53.058 38.5659 53.5422C38.5659 53.6806 38.4966 53.7497 38.4966 53.8189ZM34.3361 60.2523C32.6719 57.6928 31.0077 55.2024 29.3435 52.6429C32.3252 53.2655 35.3069 53.8881 38.2886 54.3032C37.4565 56.5168 36.0696 58.5229 34.3361 60.2523ZM25.807 29.6073C26.015 29.6765 26.1537 29.6765 26.3617 29.7457C25.2523 33.7579 24.0735 37.7701 22.964 41.8515C22.8946 39.707 22.756 37.4934 22.6866 35.3489C23.7267 33.412 24.7669 31.4751 25.807 29.6073ZM22.6173 33.6887C22.5479 32.1668 22.4786 30.645 22.4092 29.1231C23.2414 29.1923 24.0735 29.3306 24.9056 29.469L22.6173 33.6887ZM32.6719 32.1668C33.2266 32.3744 33.712 32.6511 34.2667 32.9278C35.0988 33.5504 35.8616 34.3113 36.555 35.1414C33.7813 36.94 31.0077 38.7386 28.1646 40.468C29.3435 37.5626 30.5916 34.6572 31.8398 31.821C32.0478 31.8901 32.3945 32.0285 32.6719 32.1668ZM38.9127 40.5371C38.8433 40.5371 38.8433 40.5371 38.774 40.5371C37.1791 40.8138 35.5842 41.1597 33.92 41.5056C35.3762 40.6755 36.9017 39.7762 38.3579 38.9461C38.6353 39.4995 38.774 39.9837 38.9127 40.5371ZM31.2157 42.1282C31.1463 42.1282 31.077 42.1282 31.0077 42.1974C29.6902 42.4741 28.3727 42.6816 27.0552 42.9583C27.1938 42.5432 27.4019 42.1974 27.5406 41.7823C30.661 39.8454 33.8507 37.8393 36.9711 35.8332C37.4565 36.5941 37.8032 37.4242 38.1499 38.1851C35.7923 39.4995 33.504 40.8138 31.2157 42.1282ZM28.0953 43.9959C27.6792 44.2035 27.2632 44.4802 26.8471 44.6877C26.7085 44.6185 26.5698 44.5493 26.4311 44.411C26.4311 44.411 26.4311 44.3418 26.5004 44.3418C27.0552 44.2035 27.6099 44.0651 28.0953 43.9959ZM26.8471 41.2289C26.3617 41.5056 25.8764 41.7823 25.4603 42.1282C26.7778 39.7762 28.1646 37.355 29.4821 35.003C28.5807 37.0783 27.7486 39.1536 26.8471 41.2289ZM26.2924 42.5432C26.2231 42.7508 26.1537 42.9583 26.0844 43.0966C25.7377 43.1658 25.4603 43.235 25.1136 43.3042C25.5296 43.0966 25.8764 42.8199 26.2924 42.5432ZM25.391 44.826C25.2523 45.1027 25.1136 45.4486 25.0442 45.7253C24.8362 45.4486 24.6975 45.1027 24.4895 44.826C24.6975 44.7569 24.9749 44.6877 25.1829 44.6877C25.2523 44.6877 25.3216 44.7569 25.391 44.826ZM25.9457 48.7691C25.599 48.6307 25.2523 48.5615 24.9056 48.4232C25.0442 48.1465 25.1136 47.8698 25.2523 47.5931C25.4603 48.0081 25.7377 48.354 25.9457 48.7691ZM27.2632 50.9135C27.4712 51.2594 27.6792 51.5361 27.8873 51.882C26.5698 51.6053 25.2523 51.3286 23.9348 50.9827C24.0735 50.6368 24.2121 50.2909 24.2815 50.0142C25.3216 50.2909 26.2924 50.5676 27.2632 50.9135ZM27.7486 45.1719C28.7887 44.5493 29.8288 43.9268 30.869 43.3042C33.2266 42.7508 35.5842 42.1974 37.8725 41.6439C37.9419 41.6439 37.9419 41.6439 38.0112 41.6439C38.4273 41.5748 38.774 41.5056 39.19 41.4364C39.2594 41.7131 39.3287 41.9898 39.3981 42.3357C39.6061 45.3794 39.7448 48.5615 39.1207 51.6053C35.3069 49.53 31.4931 47.3856 27.7486 45.1719ZM30.5916 31.2675C28.65 34.7263 26.7085 38.1851 24.7669 41.6439C25.8764 37.8393 26.9165 34.0346 28.026 30.2299C28.8581 30.5758 29.7595 30.9217 30.5916 31.2675ZM23.7267 45.1719C23.9348 45.5178 24.1428 45.8637 24.3508 46.2096C24.0041 46.4171 23.5881 46.6246 23.2414 46.9013L23.7267 45.1719ZM24.4895 47.1088C24.3508 47.4547 24.2121 47.8006 24.0735 48.2157C23.7961 48.1465 23.4494 48.0081 23.172 47.939C23.6574 47.5931 24.0735 47.3856 24.4895 47.1088ZM23.5187 49.6684C23.4494 49.8759 23.38 50.0142 23.3107 50.2218V49.5992C23.38 49.5992 23.4494 49.6684 23.5187 49.6684ZM23.7961 51.2594C25.2523 51.6053 26.7085 52.0203 28.1646 52.3662C29.9675 55.2024 31.7704 58.0387 33.6427 60.8749C33.0186 61.4283 32.3945 61.9817 31.7011 62.4659C31.3544 62.6734 31.077 62.881 30.7303 63.0885C28.3033 60.5982 25.9457 58.1078 23.5187 55.6175C23.4494 54.5107 23.4494 53.473 23.38 52.3662C23.5187 52.0203 23.6574 51.6745 23.7961 51.2594ZM22.0625 40.8138C21.6465 40.1221 21.2304 39.4303 20.8144 38.6694L21.9239 36.6633C21.9932 38.0468 21.9932 39.4303 22.0625 40.8138ZM21.5078 41.5056C20.9531 41.1597 20.3983 40.8138 19.8436 40.468C19.9823 40.1912 20.1903 39.8454 20.329 39.5687C20.745 40.1912 21.0917 40.8138 21.5078 41.5056ZM22.1319 42.8199C22.1319 43.1658 22.1319 43.5117 22.2012 43.8576C20.745 44.1343 19.2195 44.411 17.7633 44.6877C17.7633 44.5493 17.694 44.411 17.694 44.3418C18.2487 43.3042 18.8728 42.2665 19.4275 41.2289C20.329 41.7131 21.2304 42.2665 22.1319 42.8199ZM16.0298 65.648C14.9896 65.233 13.9495 64.7487 12.9787 64.1953C14.851 60.944 16.6539 57.6236 18.5261 54.3723C18.8728 56.4476 19.2195 58.5229 19.4969 60.5982C18.8728 62.3967 18.2487 64.1261 17.694 65.9247C17.1392 65.8555 16.5845 65.7864 16.0298 65.648ZM10.1357 56.1017C9.3036 57.4161 8.33281 58.6612 7.36202 59.7681C7.01531 59.4222 6.6686 59.0071 6.32189 58.5921C7.57005 57.7619 8.88755 56.9318 10.1357 56.1017ZM5.76715 57.9695C5.21242 57.2085 4.72702 56.4476 4.24163 55.6175C7.36202 53.8881 10.4131 52.0895 13.4641 50.2909C12.7014 51.6745 11.9386 53.058 11.1065 54.4415C9.37294 55.5483 7.57005 56.7243 5.76715 57.9695ZM11.7999 54.9949C13.8802 53.6806 15.8911 52.3662 17.9714 51.0519C18.11 51.6745 18.1794 52.3662 18.3181 52.9888C16.3071 56.586 14.2962 60.1831 12.2853 63.7111C10.6904 62.7426 9.23425 61.5666 7.91676 60.3215C9.37294 58.7304 10.6211 56.9318 11.7999 54.9949ZM21.5078 47.3856C20.8144 47.178 20.1903 46.9705 19.5662 46.763C20.2596 46.3479 20.8837 45.9329 21.5771 45.587L21.9932 45.5178C21.8545 46.002 21.7158 46.4863 21.5771 46.9705C21.4385 47.0397 21.5078 47.2472 21.5078 47.3856ZM20.3983 48.6307C20.1903 48.7691 19.9129 48.9074 19.7049 49.0458C19.4969 48.7691 19.2889 48.4924 19.2195 48.2157C19.5662 48.354 19.9823 48.4924 20.3983 48.6307ZM18.5261 46.3479C18.3874 46.2787 18.2487 46.2787 18.11 46.2096C18.4568 46.1404 18.8035 46.0712 19.0808 46.002C18.9421 46.0712 18.7341 46.2096 18.5261 46.3479ZM18.3181 47.939C18.4567 48.0081 18.5261 48.0081 18.6648 48.0773C18.7341 48.5615 19.0115 48.9766 19.2889 49.3225C19.0808 49.4608 18.8035 49.5992 18.5954 49.7375C18.5261 49.115 18.3874 48.5615 18.3181 47.939ZM19.9823 49.8759L20.0516 49.9451C19.7742 50.3601 19.5662 50.8443 19.2889 51.2594C19.0808 51.0519 18.9421 50.8444 18.7341 50.706V50.6368C19.1502 50.3601 19.5662 50.1526 19.9823 49.8759ZM19.4969 52.6429C20.1903 53.3347 20.8837 54.0956 21.5771 54.7874C21.0917 56.1709 20.6064 57.5544 20.0516 58.9379C19.7742 57.001 19.4275 55.1333 19.1502 53.1963C19.2889 52.9888 19.4275 52.8505 19.4969 52.6429ZM19.9129 51.882C20.1903 51.3978 20.4677 50.8444 20.8144 50.3601C21.3691 50.6368 21.9932 50.8443 22.4786 50.9827C22.4786 51.3978 22.5479 51.8128 22.5479 52.297C22.3399 52.8505 22.1319 53.4039 21.9239 54.0264C21.2304 53.2655 20.6064 52.5737 19.9129 51.882ZM21.9932 50.3601C21.6465 50.2909 21.3691 50.1526 21.0224 49.9451C21.2304 49.5992 21.3691 49.3225 21.5771 48.9766C21.8545 49.0458 22.1319 49.1841 22.4786 49.2533C22.4786 49.6684 22.4786 50.0142 22.5479 50.4293C22.3399 50.4293 22.1319 50.4293 21.9932 50.3601ZM17.486 43.0275C17.2779 41.8515 17.0699 40.7447 16.8619 39.6378C17.486 40.0529 18.11 40.3988 18.7341 40.8138C18.3181 41.5056 17.902 42.2665 17.486 43.0275ZM17.7633 49.5992C17.4166 49.1841 17.0006 48.8382 16.6539 48.4232C16.9312 48.2848 17.2086 48.0773 17.486 47.939C17.5553 48.4924 17.6246 49.0458 17.7633 49.5992ZM16.0298 47.8698C15.9604 47.8006 15.8911 47.7314 15.8911 47.7314C15.9604 47.5931 16.0298 47.4547 16.0991 47.3164C16.3071 47.3856 16.5152 47.4547 16.7232 47.5239C16.5152 47.5931 16.2378 47.7314 16.0298 47.8698ZM17.4166 50.4985C15.8911 51.4669 14.2962 52.4354 12.7707 53.473C13.5335 52.1587 14.2269 50.8443 14.9203 49.53C15.267 49.3225 15.5444 49.115 15.8911 48.9766C16.3765 49.3917 16.9312 49.9451 17.4166 50.4985ZM18.5261 66.0631C18.9421 64.8179 19.3582 63.6419 19.7742 62.3967C19.9823 63.6419 20.121 64.8871 20.329 66.1322C19.7049 66.1322 19.1502 66.0631 18.5261 66.0631ZM20.3983 60.6673C21.0224 58.9379 21.6465 57.2085 22.2706 55.41C22.4092 55.5483 22.5479 55.7558 22.756 55.8942C22.8946 59.2146 23.0333 62.5351 23.172 65.8555C22.5479 65.9247 21.8545 65.9939 21.2304 66.0631C20.8837 64.2645 20.6757 62.4659 20.3983 60.6673ZM23.5881 56.8627C25.7377 59.0763 27.8873 61.2899 30.0369 63.5036C28.1646 64.5412 26.0844 65.3021 24.0041 65.7172C23.7961 62.7426 23.7267 59.8372 23.5881 56.8627ZM16.3071 28.3622C17.2779 28.293 18.2487 28.2238 19.2195 28.293C19.1502 28.293 19.0808 28.293 19.0115 28.293C18.0407 28.293 17.0699 28.4313 16.1685 28.5697C16.2378 28.5005 16.3071 28.4313 16.3071 28.3622ZM21.5771 29.0539C21.6465 31.06 21.7158 33.0661 21.8545 35.0722C21.3691 35.9715 20.8144 36.94 20.329 37.8393C18.6648 35.0722 17.0699 32.236 15.475 29.469C17.486 29.0539 19.4969 28.9156 21.5771 29.0539ZM19.8436 38.6694C19.5662 39.0844 19.3582 39.5687 19.0808 39.9837C18.2487 39.4995 17.4166 38.9461 16.5845 38.4618C16.0991 35.8332 15.6137 33.2045 15.1283 30.5758C16.7232 33.2737 18.2487 35.9715 19.8436 38.6694ZM16.7925 44.2035C16.6539 44.411 16.5152 44.6877 16.3765 44.8952C16.3765 44.8952 16.3765 44.9644 16.3071 44.9644C15.4057 45.1027 14.5043 45.3103 13.6028 45.4486C10.7598 42.5432 7.91676 39.5687 5.07373 36.6633C5.76715 35.6256 6.52991 34.588 7.43136 33.6195C10.205 35.4873 12.9787 37.2859 15.8218 39.0153C16.1685 40.7447 16.5152 42.4741 16.7925 44.2035ZM13.9495 28.8464C13.9495 28.9156 13.9495 28.9156 13.9495 28.9847C13.6028 29.0539 13.1868 29.1923 12.84 29.3306C13.2561 29.1923 13.6028 28.9847 13.9495 28.8464ZM14.1575 29.7457C14.7123 32.4435 15.1977 35.1414 15.6831 37.8393C13.1174 36.2482 10.6211 34.588 8.05544 32.9278C8.54083 32.4435 9.02623 31.9593 9.51162 31.5443C11.0371 30.7833 12.5627 30.1607 14.1575 29.7457ZM2.92413 37.9776C2.30005 39.707 1.81465 41.5056 1.53729 43.3042C1.32926 43.4425 1.25992 43.7884 1.46794 43.9959C1.3986 44.2726 1.3986 44.5493 1.32926 44.826C1.19058 45.7945 1.19058 46.8321 1.19058 47.8006C0.843866 47.939 0.913208 48.4924 1.19058 48.5615C1.19058 49.7375 1.32926 50.9135 1.60663 52.0203C1.25992 50.9135 1.05189 49.8759 0.913207 48.6999C0.427813 44.9644 1.19058 41.2289 2.92413 37.9776ZM21.2998 66.824C21.9239 66.7548 22.5479 66.6857 23.172 66.5473C23.172 66.6165 23.172 66.6857 23.172 66.7548C22.5479 66.824 21.9239 66.8932 21.2998 66.824ZM24.0041 66.6857C24.0041 66.6165 24.0041 66.5473 24.0041 66.4781C26.0844 66.0631 28.0953 65.3713 30.0369 64.3337C30.1062 64.3337 30.1062 64.2645 30.1756 64.2645C28.1646 65.4405 26.1537 66.2706 24.0041 66.6857ZM35.6536 61.1516C36.4163 60.3215 37.0404 59.4222 37.6645 58.4537C37.0404 59.4222 36.347 60.3215 35.6536 61.1516ZM40.0221 54.0264C40.0221 53.8881 40.0915 53.7497 40.0915 53.6806C41.2703 53.9573 42.5184 54.3032 43.7666 54.5107C42.5184 54.3723 41.2703 54.234 40.0221 54.0264ZM40.2302 52.8505C40.2995 52.5046 40.3688 52.1587 40.3688 51.7436C41.2009 48.2848 41.2009 44.6185 40.3688 41.1597C40.5075 41.1597 40.6462 41.0905 40.7849 41.0905C41.5477 41.0214 42.3104 40.9522 43.0038 40.883C43.1425 41.0905 43.2119 41.2981 43.3506 41.5056C40.7156 44.0651 40.8542 50.0142 43.4892 52.5737C44.044 53.1963 44.668 53.6806 45.5002 53.9573C45.5002 53.9573 45.5002 53.9573 45.5695 53.9573C43.7666 53.7497 42.0331 53.3347 40.2302 52.8505ZM46.0549 53.1272C45.9162 53.058 45.7082 52.9888 45.5695 52.9196C43.0038 51.7436 42.4491 49.6684 42.4491 47.1088C42.4491 45.4486 42.7265 43.5117 43.8359 42.3357C44.6681 43.9959 45.5002 45.587 46.3323 47.2472C46.4709 47.4547 46.6096 47.5931 46.8177 47.6623C46.6096 49.53 46.3323 51.3286 46.0549 53.1272ZM47.3724 45.6562L45.1534 41.4364C45.5002 41.2981 45.9162 41.2289 46.3323 41.1597C46.6096 41.2289 46.887 41.2289 47.1644 41.2981C47.6498 41.4364 48.1352 41.5748 48.6205 41.7131C48.2045 43.0275 47.7884 44.3418 47.3724 45.6562ZM49.4527 42.059C49.8687 42.2665 50.2848 42.4741 50.6315 42.6816C49.938 43.4425 49.1753 44.2035 48.4819 44.9644L49.4527 42.059ZM46.887 53.4039C47.1644 51.5361 47.4417 49.6684 47.7191 47.8006C49.3833 49.115 51.0475 50.4293 52.7117 51.7436C51.1862 53.1963 49.0366 53.8881 46.887 53.4039ZM54.3066 46.6938C54.4453 47.3856 54.5146 48.1465 54.4453 48.8382C54.1679 49.6684 53.7519 50.4985 53.1971 51.1211L48.0658 47.0397C49.2446 45.7945 50.4234 44.5493 51.6023 43.3042C52.7811 44.2035 53.7519 45.3103 54.3066 46.6938ZM51.6023 41.7131C51.0475 41.3672 50.4234 41.0905 49.8687 40.883C50.0767 40.1912 50.3541 39.4303 50.5621 38.7386L51.8796 38.6002C52.9891 38.531 52.8504 36.8016 51.7409 36.94L47.9965 37.2859C46.887 37.355 47.0257 39.0844 48.1352 38.9461L49.73 38.8077C49.522 39.4303 49.314 40.0529 49.1059 40.6755C47.7884 40.3296 46.4016 40.1912 45.0841 40.2604C44.9454 40.2604 44.8067 40.2604 44.6681 40.2604L37.3871 26.2869C35.7229 23.1048 34.1281 19.9227 32.3252 16.8098L67.759 13.766C68.8684 15.7029 69.9779 17.6399 71.018 19.5768C64.7773 27.117 58.3284 34.5188 51.6023 41.7131ZM63.0437 45.7945H63.113C63.1824 46.2787 63.1824 46.763 63.2517 47.2472C63.1824 46.763 63.113 46.2787 63.0437 45.7945ZM63.113 44.8952H63.0437C63.0437 44.8952 63.0437 44.8952 63.0437 44.826C62.9744 43.7884 63.0437 42.6816 63.113 41.5748C63.0437 42.6816 63.0437 43.7884 63.113 44.8952ZM99.9337 39.6378C97.0907 40.0529 94.2476 40.468 91.4046 40.883C91.1272 40.5371 90.8499 40.1221 90.5725 39.7762C92.5834 37.0092 94.5943 34.1729 96.6053 31.3367C98.5468 33.7579 99.587 36.5941 99.9337 39.6378ZM91.0579 41.7823C91.2659 42.059 91.4739 42.2665 91.682 42.5432C90.9886 42.3357 90.3645 42.1974 89.6711 41.9898C90.0871 41.8515 90.5725 41.8515 91.0579 41.7823ZM89.5324 41.0905C89.6711 40.883 89.8791 40.6063 90.0178 40.3988C90.1565 40.6063 90.2951 40.7447 90.4338 40.9522C90.1564 41.0214 89.8791 41.0905 89.5324 41.0905ZM95.3571 28.9156C94.317 28.0163 93.2075 27.1862 92.0287 26.5636C93.2075 27.1862 94.3863 27.9471 95.3571 28.9156ZM90.7805 26.7711C89.6711 28.293 88.6309 29.884 87.5214 31.4059C87.1747 29.3306 86.828 27.2553 86.412 25.1801C87.9375 25.5259 89.3937 26.0793 90.7805 26.7711ZM76.2187 39.3611C75.9413 38.8077 75.6639 38.2543 75.3866 37.6317C76.9121 38.2543 78.3683 38.9461 79.8938 39.5687C80.1018 40.0529 80.3792 40.5371 80.5872 41.0214C80.1018 41.3672 79.6164 41.6439 79.1311 41.9898C78.0909 41.0905 77.1201 40.1912 76.2187 39.3611ZM78.8537 43.9959C78.7843 44.0651 78.715 44.1343 78.715 44.2726C78.6457 44.1343 78.5763 44.0651 78.5763 43.9268L78.8537 43.9959ZM78.299 42.4049C78.1603 42.4741 78.0216 42.6124 77.8829 42.6816C77.6749 42.2665 77.4669 41.8515 77.2588 41.4364C77.6055 41.7131 77.9522 42.059 78.299 42.4049ZM81.558 43.0966C81.6967 43.3042 81.7661 43.5809 81.9047 43.7884L80.9339 43.5809C80.7953 43.4425 80.6566 43.3733 80.5872 43.235C80.8646 43.235 81.2113 43.1658 81.558 43.0966ZM81.0033 39.9837C81.142 40.0529 81.35 40.1221 81.4887 40.1912L81.2807 40.468C81.2807 40.468 81.2807 40.468 81.2113 40.468C81.142 40.3296 81.0726 40.1912 81.0033 39.9837ZM85.9266 35.2106C86.3426 35.6948 86.6893 36.179 87.036 36.6633C86.1346 37.2167 85.3025 37.8393 84.4011 38.3927C84.4704 37.9776 84.5397 37.4934 84.6091 37.0783L85.9266 35.2106ZM84.8865 35.2798C84.9558 34.9339 84.9558 34.5188 85.0251 34.1729C85.1638 34.3113 85.2332 34.4496 85.3718 34.588L84.8865 35.2798ZM87.5908 37.355C87.7988 38.7386 88.0068 40.0529 88.2149 41.3672C88.0762 41.3672 87.8682 41.4364 87.7295 41.4364C86.8974 41.1597 85.9959 40.883 85.1638 40.6063C84.9558 40.1912 84.7478 39.8454 84.4704 39.4303C85.5105 38.7386 86.5507 38.0468 87.5908 37.355ZM88.4229 42.6816C88.5616 43.5117 88.6309 44.3418 88.7696 45.2411C88.1455 45.1027 87.4521 44.9644 86.828 44.826C87.3134 44.0651 87.8682 43.3733 88.4229 42.6816ZM84.8171 43.3733C85.3718 44.2726 86.6893 43.3733 86.2039 42.4741C86.6893 42.4049 87.1747 42.3357 87.6601 42.2665C87.0361 43.0275 86.4813 43.8576 85.8572 44.6185C85.0945 44.4802 84.2624 44.2726 83.4996 44.1343C83.5689 43.7192 83.6383 43.235 83.7076 42.8199C83.9157 42.8199 84.193 42.7508 84.4011 42.7508C84.5397 42.8891 84.6784 43.1658 84.8171 43.3733ZM83.0142 42.059C82.6675 42.1282 82.3901 42.1282 82.0434 42.1974C81.9047 41.9207 81.7661 41.6439 81.6274 41.4364C81.6967 41.3672 81.7661 41.2289 81.8354 41.1597C82.1128 41.0214 82.3208 40.8138 82.5982 40.6755C82.8062 40.7447 83.0142 40.8138 83.1529 40.883C83.1529 41.2289 83.0835 41.6439 83.0142 42.059ZM82.8755 42.9583C82.8062 43.1658 82.8062 43.3733 82.7368 43.5809L82.4595 43.0275C82.5982 42.9583 82.7368 42.9583 82.8755 42.9583ZM79.7551 44.2035C80.0325 44.2726 80.3099 44.3418 80.5872 44.3418C81.142 44.826 81.7661 45.3795 82.3208 45.8637C82.0434 47.0397 81.6967 48.2848 81.2807 49.4608C80.5872 48.0081 79.8938 46.5554 79.1311 45.1719C79.3391 44.826 79.5471 44.4802 79.7551 44.2035ZM82.9449 46.4863C83.0835 46.6246 83.2222 46.763 83.3609 46.9013C83.4303 47.1088 83.5689 47.3164 83.6383 47.4547C83.0835 48.1465 82.5982 48.8382 82.0434 49.53C82.3901 48.4924 82.7368 47.5239 82.9449 46.4863ZM83.4303 44.9644C84.0543 45.1027 84.6784 45.2411 85.3025 45.3794C84.9558 45.7945 84.6784 46.2096 84.3317 46.6246C84.2624 46.5554 84.1237 46.4863 84.0543 46.4171L83.4303 44.9644ZM86.2039 45.5178C87.1054 45.7253 87.9375 45.8637 88.839 46.0712C89.047 47.6623 89.1857 49.2533 89.3937 50.9135C87.9375 49.6684 86.4813 48.4232 85.0251 47.178C85.4412 46.6246 85.7879 46.0712 86.2039 45.5178ZM87.3828 35.6948C87.036 35.2798 86.7587 34.8647 86.412 34.5188C86.62 34.2421 86.828 33.8962 87.036 33.6195C87.1747 34.3113 87.3134 35.003 87.3828 35.6948ZM86.8974 32.4435C86.5507 32.9278 86.2733 33.412 85.9266 33.8271C85.7186 33.5504 85.4412 33.2737 85.2332 32.9969C85.5105 31.06 85.7186 29.1231 85.9959 27.117C86.2733 28.9156 86.5507 30.645 86.8974 32.4435ZM81.2113 24.3499C82.5982 24.4191 83.985 24.6267 85.3718 24.9034C85.0251 27.2553 84.7478 29.6765 84.4704 32.0977C82.3208 29.469 80.1712 26.9095 78.0216 24.3499C79.0617 24.2808 80.1712 24.3499 81.2113 24.3499ZM76.0107 24.6958C76.08 24.6958 76.1493 24.6958 76.2187 24.6958C76.3574 24.6958 76.4267 24.6958 76.4961 24.6267C76.7041 24.6267 76.8428 24.4883 76.9121 24.3499H76.9815C76.9815 24.4191 77.0508 24.4883 77.0508 24.5575C79.4778 27.3937 81.9047 30.2991 84.2624 33.2045C84.1237 34.3805 83.985 35.5565 83.777 36.7324L83.2916 37.4242C80.7953 33.1353 78.3683 28.9156 75.872 24.6267C75.9413 24.6958 76.0107 24.6958 76.0107 24.6958ZM74.1384 24.9725C76.8428 29.6765 79.5471 34.3805 82.2514 39.0153C82.1128 39.1536 82.0434 39.292 81.9741 39.4995C81.7661 39.4303 81.558 39.3611 81.2807 39.292C81.0033 39.2228 80.7259 39.0844 80.4486 38.9461C78.2296 34.3113 75.9413 29.7457 73.7224 25.1109C73.8611 25.0417 73.9997 25.0417 74.1384 24.9725ZM70.3246 26.6328C71.0874 26.0793 71.9888 25.6643 72.8903 25.3184C72.8903 25.3184 72.8903 25.3184 72.8903 25.3876C75.0399 29.7457 77.1201 34.1038 79.2697 38.4618C77.7442 37.8393 76.288 37.2167 74.7625 36.5249C73.1676 33.3428 71.5034 30.1607 69.9086 26.9786C70.0472 26.9095 70.1859 26.7711 70.3246 26.6328ZM74.4851 37.7009C74.1384 37.4242 73.8611 37.0783 73.5144 36.8016C73.7224 36.8708 73.9304 37.0092 74.2078 37.0783C74.2771 37.355 74.3465 37.5626 74.4851 37.7009ZM69.2845 27.6012C70.7407 30.4374 72.1968 33.2045 73.5837 36.0407C73.029 35.8332 72.4049 35.5565 71.8501 35.3489C70.1859 33.7579 68.5217 32.236 66.8575 30.645C67.5509 29.6073 68.383 28.5697 69.2845 27.6012ZM65.9561 32.4435C66.0947 32.0977 66.3028 31.7518 66.5108 31.4059C67.6203 32.5127 68.7991 33.5504 69.9086 34.6572C68.4524 34.1729 66.9962 33.7579 65.4707 33.5504C65.6094 33.1353 65.748 32.7894 65.9561 32.4435ZM65.124 34.3113C67.2042 34.6572 69.2845 35.2798 71.3647 36.0407C72.7516 37.355 74.1384 38.6002 75.5253 39.8454C76.0107 40.8138 76.4961 41.7823 76.9815 42.8199C72.6129 41.9207 68.2444 41.0214 63.8758 40.1221C64.0838 38.116 64.4999 36.179 65.124 34.3113ZM63.8758 40.9522C67.5509 41.7131 71.2954 42.4741 74.9705 43.235C71.3647 43.7884 67.6896 44.2726 64.0838 44.826C63.8758 43.5117 63.8065 42.1974 63.8758 40.9522ZM64.2225 45.587C68.1057 45.0336 71.9888 44.4802 75.872 43.9268C72.4742 46.0712 69.0071 48.1465 65.54 50.1526C64.9853 48.9074 64.6386 47.5931 64.3612 46.2787C64.2919 46.0712 64.2225 45.8637 64.2225 45.587ZM65.1933 51.3286C65.748 52.4354 66.3028 53.473 66.9962 54.5107C66.2334 53.473 65.6787 52.4354 65.1933 51.3286ZM65.8867 50.9135C69.8392 48.6307 73.7224 46.2787 77.5362 43.8576C77.7442 44.2726 77.9522 44.6185 78.1603 45.0336C75.3866 48.9766 72.6822 52.9888 69.9086 56.9318C68.2444 55.2024 66.8575 53.1272 65.8867 50.9135ZM73.7224 59.8372C72.8903 59.4222 72.0582 58.9379 71.2261 58.3845C70.9487 58.1078 70.6713 57.9003 70.394 57.6236C73.0983 53.7497 75.8026 49.8067 78.507 45.9329C79.2697 47.4547 80.0325 49.0458 80.7953 50.5676C80.6566 50.9135 80.5872 51.1902 80.4486 51.5361C78.299 54.3032 76.0107 57.1394 73.7224 59.8372ZM77.3975 61.3591C76.4267 61.0824 75.4559 60.6673 74.4851 60.2523C76.2187 58.177 77.8829 56.1017 79.5471 54.0264C78.715 56.4476 77.8829 58.8688 77.3975 61.3591ZM78.5763 61.705C78.4376 61.705 78.3683 61.6358 78.2296 61.6358C78.8537 58.3154 80.1018 55.2024 81.2113 52.0203C81.2807 51.9512 81.35 51.882 81.4193 51.8128C83.0836 55.2716 84.8171 58.7304 86.412 62.1892C83.8463 62.6734 81.142 62.3276 78.5763 61.705ZM87.2441 61.9125C85.5105 58.2462 83.7076 54.649 81.9741 50.9827C82.6675 50.0834 83.3609 49.1841 84.0543 48.2848C86.0653 52.3662 88.0762 56.5168 90.0871 60.5982C89.1857 61.2207 88.2842 61.6358 87.2441 61.9125ZM90.0871 58.6612C88.4229 55.2024 86.6893 51.7436 85.0251 48.2848C86.4813 49.5992 88.0069 50.8444 89.5324 52.0895C89.7404 54.3032 89.9484 56.5168 90.0871 58.6612ZM87.7295 32.5819C88.9776 30.7833 90.2258 28.9156 91.4739 27.117C92.7914 27.8779 94.0396 28.708 95.1491 29.8148C95.3571 30.0224 95.6345 30.2991 95.8425 30.5066C93.2768 32.3052 90.7805 34.1038 88.2149 35.8332C88.0762 34.7955 87.9375 33.6887 87.7295 32.5819ZM88.4229 36.8016C90.5725 35.3489 92.6528 33.8962 94.8024 32.4435C93.2075 34.6572 91.682 36.8708 90.0178 39.0844C89.463 38.3927 88.9776 37.7701 88.4229 37.0783C88.4229 36.94 88.4229 36.8708 88.4229 36.8016ZM88.7003 38.6694C88.9776 39.0153 89.255 39.3611 89.5324 39.707C89.3243 39.9837 89.1857 40.1912 88.9776 40.468C88.839 39.9145 88.7696 39.292 88.7003 38.6694ZM89.255 42.7508C90.2951 43.0966 91.4046 43.3733 92.5141 43.65C93.2075 44.5493 93.9009 45.5178 94.5943 46.4171C92.9301 46.0712 91.2659 45.7253 89.6017 45.3794C89.463 44.4802 89.3937 43.5809 89.255 42.7508ZM91.0579 59.9756C90.8499 57.6236 90.6418 55.2716 90.4338 52.9196C91.8207 54.0956 93.2075 55.2024 94.5943 56.3784C93.4849 57.6928 92.3061 58.9379 91.0579 59.9756ZM90.2951 51.6745C90.0871 49.8759 89.8791 48.0773 89.6711 46.2096C91.5433 46.6246 93.4155 46.9705 95.2878 47.3856C96.1199 48.5615 97.0213 49.7375 97.8534 50.9135C97.7841 51.0519 97.7147 51.1902 97.6454 51.2594C96.8826 52.7121 96.0505 54.234 95.0104 55.6175C93.4849 54.3032 91.89 52.9888 90.2951 51.6745ZM96.6053 47.6623C97.4374 47.8006 98.2001 48.0081 99.0322 48.1465C98.8242 48.7691 98.6162 49.3917 98.3388 50.0142C97.7147 49.2533 97.16 48.4232 96.6053 47.6623ZM97.7147 52.9888C97.16 54.0264 96.4666 54.9949 95.7038 55.8942C95.7732 55.825 95.7732 55.7558 95.8425 55.6867C96.8133 54.3723 97.6454 52.9196 98.4081 51.4669C98.4081 51.4669 98.4775 51.4669 98.4775 51.5361C98.2001 52.0203 97.9921 52.5046 97.7147 52.9888ZM98.8242 50.706C98.9629 50.2218 99.1709 49.8067 99.3096 49.3917C99.1709 49.8759 98.9629 50.2909 98.8242 50.706ZM99.2403 47.3856L95.7732 46.6938C95.0797 45.7945 94.4557 44.8952 93.7622 43.9959C95.7038 44.4802 97.7147 44.9644 99.6563 45.3794C99.587 46.002 99.4483 46.6938 99.2403 47.3856ZM99.8643 44.4802C97.576 43.9959 95.2878 43.4425 92.9995 42.8199C92.6528 42.4049 92.3754 41.9898 92.0287 41.5748C94.733 41.1597 97.368 40.8138 100.072 40.3988C100.072 41.7823 100.072 43.1658 99.8643 44.4802Z" fill="#C1C1C1"/>
</svg>
