<svg width="72" height="44" viewBox="0 0 72 44" fill="none" xmlns="http://www.w3.org/2000/svg">
<path d="M68.4654 28.7965C65.239 26.0765 60.9987 25.6232 56.9427 26.3485C57.2192 24.3539 56.7583 22.2685 55.5599 20.4552C53.2554 17.1006 48.9228 15.9219 45.1434 17.1006C46.0652 9.57529 44.4059 -0.851314 35.3721 0.0553469C31.5926 0.418011 28.1819 3.31933 26.707 6.76464C25.693 9.03129 25.4164 11.4793 25.5086 13.9273C22.4666 11.9326 17.3966 12.7486 14.6311 14.8339C11.2204 17.3726 10.2986 21.5432 11.4048 25.2605C6.98002 23.8099 2.64747 28.0712 0.896009 31.9698C0.0663711 33.7831 -0.486721 35.9591 0.619463 37.7725C2.00219 40.1298 5.22856 40.4018 7.71748 40.7644C22.19 42.9404 37.0314 38.7698 51.3196 42.7591C51.5961 42.8498 51.8727 42.7591 52.057 42.6684C55.4677 43.3938 58.9707 43.8471 62.4736 43.8471C66.3452 43.8471 69.9403 42.6684 71.4152 38.7698C72.798 35.1431 71.4152 31.2445 68.4654 28.7965ZM68.281 39.8578C65.8843 42.4871 61.2752 41.7618 58.0488 41.4898C54.1772 41.1271 50.3977 40.2204 46.7105 38.9511C46.1574 38.7698 45.6965 39.0418 45.5121 39.4044C37.4923 38.3164 29.1959 39.0418 21.0839 39.2231C15.7373 39.3138 10.2064 39.4044 5.0442 38.0445C0.988191 37.0471 2.18656 33.5111 3.84583 30.9725C5.68947 28.1618 9.19239 25.6232 12.4188 28.1618C12.6031 28.3432 12.7875 28.4338 13.064 28.4338C13.4328 28.9778 13.8937 29.4312 14.4468 29.8845C15.4608 30.7912 17.12 29.3405 16.0139 28.4338C12.7875 25.7139 11.8657 20.8179 14.8155 17.4632C17.3044 14.7433 25.0477 12.8393 25.693 18.1886C25.693 18.4606 25.8773 18.6419 26.0617 18.8232C26.2461 20.0019 26.5226 21.1806 26.7991 22.2685C27.0757 23.6285 29.1959 23.0845 28.9193 21.7246C27.5366 15.1966 25.9695 4.22599 35.0033 2.23133C39.3359 1.32467 42.0092 5.22332 42.931 8.84996C43.945 12.8393 43.4841 17.0099 42.2857 20.9086C41.8248 22.1779 43.945 22.8125 44.4059 21.5432C44.5903 20.9086 44.7746 20.2739 44.959 19.5486H45.0512C48.1854 18.0072 52.4257 19.0046 54.2694 22.0872C56.0208 25.0792 55.0068 28.8872 52.3336 30.9725C51.2274 31.7885 52.7023 33.4205 53.8085 32.5138C55.099 31.5165 56.113 30.1565 56.6661 28.6152C60.4456 27.7992 64.7781 27.9805 67.728 30.7912C69.9403 33.1485 70.77 37.1378 68.281 39.8578Z" fill="#C1C1C1"/>
</svg>
