<svg width="162" height="52" viewBox="0 0 162 52" fill="none" xmlns="http://www.w3.org/2000/svg">
<path d="M31.0049 47.094L25.1602 50.6362L24.4546 51.0639C24.414 51.0883 24.3729 51.1121 24.3323 51.1347C24.3126 51.1453 24.2929 51.1566 24.2733 51.1672C24.2291 51.1917 24.1826 51.2142 24.1379 51.2367C24.111 51.2499 24.0842 51.263 24.0567 51.2749C24.0341 51.2856 24.0108 51.2962 23.9882 51.3063C23.9565 51.32 23.9255 51.3332 23.8933 51.3463C23.8659 51.3576 23.8384 51.3689 23.8104 51.3795C22.6759 51.816 21.4019 51.7101 20.3337 51.0639L3.01311 40.5668C1.73788 39.7935 0.952942 38.3658 0.952942 36.8198V15.8244C0.952942 14.279 1.73788 12.8507 3.01311 12.0774L19.0894 2.33358L20.3337 1.57905C21.6089 0.806983 23.1794 0.806983 24.4546 1.57905L41.7751 12.0768C43.0498 12.8501 43.8353 14.2784 43.8353 15.8238V36.8192C43.8353 38.3652 43.0504 39.7929 41.7751 40.5662L40.4092 41.394L39.6195 41.8724L32.8945 45.9481" fill="url(#paint0_linear_905_49)"/>
<path d="M33.5029 16.5202C32.8146 16.5202 32.1906 16.9449 31.9095 17.606L28.6411 25.2932C29.3414 23.5038 29.6265 21.7468 29.3334 20.279C28.9901 18.5579 27.8516 17.2336 25.657 16.7203C25.4398 16.6692 25.2109 16.6262 24.9707 16.5911C24.9607 16.5899 24.9506 16.5882 24.9406 16.5869C24.9531 16.5869 24.9651 16.5865 24.9779 16.5865C24.2109 16.4776 23.3263 16.4518 22.3111 16.5202C21.62 16.5202 20.9405 16.5983 20.2824 16.7477C17.3344 17.4177 14.8106 19.5233 13.5472 22.494L10.1507 30.4831C10.1383 30.5126 10.125 30.5422 10.1126 30.5722C8.03202 35.5594 6.05469 36.0162 6.05469 36.0162H11.7795C13.144 36.0162 14.3813 35.1727 14.9383 33.8632L18.9981 24.313C19.2945 23.7592 19.8382 23.0225 20.7458 22.6502C20.839 22.6151 20.9333 22.5814 21.0285 22.5497C21.3598 22.4408 21.7019 22.3555 22.0481 22.2952C25.3064 21.7291 28.917 23.4088 27.0481 29.0423L26.3353 30.7195C26.3212 30.7533 26.3072 30.7866 26.2923 30.8195C24.0017 36.0162 22.328 36.0162 22.328 36.0162H28.0074C29.4069 36.0162 30.6754 35.1512 31.2465 33.8083L38.5956 16.5202H33.5029Z" fill="white"/>
<path d="M59.3134 46.1693H61.2306V41.4534C61.2306 39.2334 59.9707 38.0145 58.2042 38.0145C57.2319 38.0145 56.4102 38.4498 55.9172 39.1318V38.1306H54V46.1693H55.9172V41.7291C55.9172 40.4377 56.5882 39.7412 57.629 39.7412C58.6424 39.7412 59.3134 40.4377 59.3134 41.7291V46.1693ZM69.8052 39.6687C70.7912 39.6687 71.5854 40.3362 71.6128 41.3954H68.0112C68.1618 40.2926 68.8876 39.6687 69.8052 39.6687ZM73.4068 43.6445H71.3389C71.0924 44.1814 70.6405 44.6167 69.8189 44.6167C68.8603 44.6167 68.0934 43.9492 67.9975 42.7594H73.5437C73.5848 42.4982 73.5985 42.237 73.5985 41.9758C73.5985 39.5816 72.051 38 69.8599 38C67.6141 38 66.0529 39.6106 66.0529 42.1499C66.0529 44.6747 67.6552 46.2999 69.8599 46.2999C71.7361 46.2999 72.9959 45.1245 73.4068 43.6445ZM79.8728 46.1693H81.9544L83.3375 40.5538L84.7206 46.1693H86.7885L89.0069 38.1306H87.1719L85.8298 44.2394L84.4056 38.1306H82.3789L80.9273 44.2539L79.5852 38.1306H77.6406L79.8728 46.1693ZM99.4256 43.8767C99.3708 40.9311 95.1666 41.8452 95.1666 40.3797C95.1666 39.9154 95.5364 39.6106 96.2485 39.6106C97.0017 39.6106 97.4673 40.0314 97.5221 40.6554H99.3571C99.2475 39.0593 98.1383 38 96.3033 38C94.4271 38 93.3042 39.0738 93.3042 40.4087C93.3042 43.3543 97.5905 42.4401 97.5905 43.8767C97.5905 44.341 97.1797 44.7038 96.4265 44.7038C95.6596 44.7038 95.1256 44.2394 95.0571 43.63H93.1262C93.2084 45.1245 94.5367 46.2999 96.4402 46.2999C98.2889 46.2999 99.4256 45.2551 99.4256 43.8767ZM106.408 39.2914V38.1306H104.491V50H106.408V45.023C106.874 45.6759 107.723 46.2999 108.914 46.2999C110.859 46.2999 112.379 44.6312 112.379 42.1209C112.379 39.6106 110.859 38 108.914 38C107.737 38 106.86 38.6094 106.408 39.2914ZM110.421 42.1209C110.421 43.6445 109.448 44.5151 108.408 44.5151C107.381 44.5151 106.408 43.6735 106.408 42.1499C106.408 40.6264 107.381 39.7848 108.408 39.7848C109.448 39.7848 110.421 40.5973 110.421 42.1209ZM116.771 42.1209C116.771 44.6312 118.305 46.2999 120.222 46.2999C121.427 46.2999 122.29 45.6904 122.742 44.994V46.1693H124.672V38.1306H122.742V39.2769C122.29 38.6094 121.454 38 120.235 38C118.305 38 116.771 39.6106 116.771 42.1209ZM122.742 42.1499C122.742 43.6735 121.783 44.5151 120.728 44.5151C119.701 44.5151 118.729 43.6445 118.729 42.1209C118.729 40.5973 119.701 39.7848 120.728 39.7848C121.783 39.7848 122.742 40.6264 122.742 42.1499ZM131.955 39.2914V38.1306H130.038V50H131.955V45.023C132.421 45.6759 133.27 46.2999 134.461 46.2999C136.406 46.2999 137.926 44.6312 137.926 42.1209C137.926 39.6106 136.406 38 134.461 38C133.283 38 132.407 38.6094 131.955 39.2914ZM135.968 42.1209C135.968 43.6445 134.995 44.5151 133.954 44.5151C132.927 44.5151 131.955 43.6735 131.955 42.1499C131.955 40.6264 132.927 39.7848 133.954 39.7848C134.995 39.7848 135.968 40.5973 135.968 42.1209ZM146.07 39.6687C147.056 39.6687 147.85 40.3362 147.877 41.3954H144.276C144.427 40.2926 145.152 39.6687 146.07 39.6687ZM149.671 43.6445H147.604C147.357 44.1814 146.905 44.6167 146.084 44.6167C145.125 44.6167 144.358 43.9492 144.262 42.7594H149.808C149.849 42.4982 149.863 42.237 149.863 41.9758C149.863 39.5816 148.316 38 146.125 38C143.879 38 142.318 39.6106 142.318 42.1499C142.318 44.6747 143.92 46.2999 146.125 46.2999C148.001 46.2999 149.261 45.1245 149.671 43.6445ZM156.672 42.1645C156.672 40.6119 157.357 40.1475 158.493 40.1475H159V38.0145C157.946 38.0145 157.151 38.5514 156.672 39.3785V38.1306H154.755V46.1693H156.672V42.1645Z" fill="#7E7E7E"/>
<path d="M67.09 31.0001H72.87V19.9161C72.87 14.8161 69.946 11.8241 65.56 11.8241C63.01 11.8241 60.97 12.9461 59.814 14.5441V12.0281H54V31.0001H59.814V20.6981C59.814 18.1141 61.242 16.6861 63.452 16.6861C65.662 16.6861 67.09 18.1141 67.09 20.6981V31.0001ZM85.2742 16.4141C87.2122 16.4141 88.8442 17.6041 88.8442 19.6781H81.5682C81.9082 17.5701 83.3702 16.4141 85.2742 16.4141ZM94.3522 24.7101H88.1642C87.6882 25.7301 86.7702 26.5461 85.1382 26.5461C83.2682 26.5461 81.7382 25.3901 81.5342 22.9081H94.6922C94.7602 22.3301 94.7942 21.7521 94.7942 21.2081C94.7942 15.4281 90.8842 11.7561 85.3422 11.7561C79.6982 11.7561 75.7542 15.4961 75.7542 21.5141C75.7542 27.5321 79.7662 31.2721 85.3422 31.2721C90.0682 31.2721 93.4342 28.4161 94.3522 24.7101ZM106.225 16.4141C108.163 16.4141 109.795 17.6041 109.795 19.6781H102.519C102.859 17.5701 104.321 16.4141 106.225 16.4141ZM115.303 24.7101H109.115C108.639 25.7301 107.721 26.5461 106.089 26.5461C104.219 26.5461 102.689 25.3901 102.485 22.9081H115.643C115.711 22.3301 115.745 21.7521 115.745 21.2081C115.745 15.4281 111.835 11.7561 106.293 11.7561C100.649 11.7561 96.7053 15.4961 96.7053 21.5141C96.7053 27.5321 100.717 31.2721 106.293 31.2721C111.019 31.2721 114.385 28.4161 115.303 24.7101ZM137.377 21.5141C137.377 15.4961 133.093 11.7561 127.517 11.7561C121.975 11.7561 117.657 15.4961 117.657 21.5141C117.657 27.5321 121.873 31.2721 127.449 31.2721C133.025 31.2721 137.377 27.5321 137.377 21.5141ZM123.573 21.5141C123.573 18.2841 125.409 16.7881 127.517 16.7881C129.557 16.7881 131.461 18.2841 131.461 21.5141C131.461 24.7101 129.523 26.2401 127.449 26.2401C125.341 26.2401 123.573 24.7101 123.573 21.5141ZM153.551 31.0001H159.331V19.9161C159.331 14.8161 156.407 11.8241 152.021 11.8241C149.471 11.8241 147.431 12.9461 146.275 14.5441V12.0281H140.461V31.0001H146.275V20.6981C146.275 18.1141 147.703 16.6861 149.913 16.6861C152.123 16.6861 153.551 18.1141 153.551 20.6981V31.0001Z" fill="black"/>
<defs>
<linearGradient id="paint0_linear_905_49" x1="37.3547" y1="5.55788" x2="8.82308" y2="45.15" gradientUnits="userSpaceOnUse">
<stop stop-color="#003CFF"/>
<stop offset="1" stop-color="#007AFF" stop-opacity="0.87"/>
</linearGradient>
</defs>
</svg>
