<svg width="160" height="51" viewBox="0 0 160 51" fill="none" xmlns="http://www.w3.org/2000/svg">
<g clip-path="url(#clip0_905_55)">
<path d="M30.05 46.09L24.21 49.64L23.5 50.06L23.38 50.13H23.32L23.19 50.2H23.11H23.04H22.94H22.86C22.2944 50.418 21.6861 50.5025 21.0826 50.447C20.479 50.3915 19.8963 50.1975 19.38 49.88L2.04997 39.57C1.42638 39.1654 0.915739 38.6091 0.565925 37.9532C0.216111 37.2973 0.0385783 36.5633 0.0499699 35.82V14.82C0.0383992 14.0781 0.215933 13.3455 0.56584 12.6911C0.915747 12.0368 1.4265 11.4824 2.04997 11.08L18.14 1.33003L19.38 0.580028C20.0021 0.206255 20.7142 0.00878906 21.44 0.00878906C22.1657 0.00878906 22.8778 0.206255 23.5 0.580028L40.83 11.08C41.4646 11.4752 41.9872 12.0265 42.3478 12.6813C42.7085 13.3361 42.8952 14.0725 42.89 14.82V35.82C42.895 36.5689 42.7083 37.3066 42.3477 37.963C41.9872 38.6193 41.4647 39.1726 40.83 39.57L39.46 40.39L38.67 40.87L31.94 45" fill="url(#paint0_linear_905_55)"/>
<path d="M32.55 15.5201C32.2067 15.5235 31.8722 15.629 31.5891 15.8231C31.3059 16.0172 31.087 16.2911 30.96 16.6101L27.69 24.2901C28.3847 22.7212 28.6238 20.9885 28.38 19.2901C28.2111 18.3902 27.7676 17.5647 27.1104 16.9272C26.4532 16.2896 25.6146 15.8714 24.71 15.7301L24.05 15.5901C23.1649 15.4732 22.27 15.4497 21.38 15.5201C20.7069 15.523 20.0362 15.6001 19.38 15.7501C17.8831 16.104 16.4921 16.8092 15.3218 17.8073C14.1515 18.8055 13.2357 20.0678 12.65 21.4901L9.24998 29.4901V29.5801C7.04998 34.5601 5.09998 35.0001 5.09998 35.0001H10.83C11.5105 34.9896 12.1729 34.7792 12.7347 34.3952C13.2966 34.0111 13.7331 33.4703 13.99 32.8401L18.05 23.3101C18.4217 22.5694 19.0408 21.9822 19.8 21.6501L20.08 21.5501C20.4066 21.4419 20.7409 21.3583 21.08 21.3001C24.34 20.7301 27.95 22.4101 26.08 28.0401L25.37 29.7201L25.32 29.8201C23.03 35.0201 21.32 35.0201 21.32 35.0201H27.05C27.7474 35.0107 28.4266 34.7961 29.0029 34.4031C29.5791 34.0101 30.0268 33.456 30.29 32.8101L37.65 15.5201H32.55Z" fill="white"/>
<path d="M58.3116 44.1758H60.2282V39.4679C60.2761 39.0245 60.2326 38.5755 60.1006 38.1516C59.9686 37.7278 59.7513 37.3393 59.4637 37.013C59.1761 36.6866 58.8251 36.4301 58.4347 36.2613C58.0444 36.0924 57.624 36.0151 57.2027 36.0347C56.7662 36.0217 56.3327 36.1156 55.9362 36.3091C55.5396 36.5025 55.1906 36.7904 54.9166 37.1502V36.1506H53V44.1758H54.9166V39.7431C54.8859 39.4881 54.9069 39.2291 54.9782 38.9833C55.0495 38.7375 55.1694 38.5106 55.33 38.3177C55.4905 38.1248 55.6881 37.9702 55.9095 37.8644C56.1309 37.7585 56.3711 37.7038 56.6141 37.7038C56.857 37.7038 57.0972 37.7585 57.3186 37.8644C57.54 37.9702 57.7376 38.1248 57.8982 38.3177C58.0588 38.5106 58.1787 38.7375 58.25 38.9833C58.3213 39.2291 58.3423 39.4881 58.3116 39.7431V44.1758ZM68.8116 37.6861C69.0383 37.6684 69.2661 37.6995 69.4812 37.7774C69.6962 37.8554 69.8942 37.9786 70.063 38.1397C70.2319 38.3007 70.3682 38.4963 70.4637 38.7147C70.5591 38.933 70.6119 39.1695 70.6186 39.4099H67.0456C67.0805 38.9348 67.2855 38.4917 67.6189 38.1713C67.9522 37.8509 68.3887 37.6773 68.839 37.6861H68.8116ZM72.412 41.6552H70.3722C70.2421 41.9612 70.027 42.218 69.7555 42.3913C69.4841 42.5647 69.1691 42.6465 68.8527 42.6258C68.6178 42.6315 68.3842 42.588 68.1653 42.4978C67.9464 42.4076 67.7466 42.2724 67.5773 42.1C67.4081 41.9276 67.2727 41.7215 67.1791 41.4935C67.0855 41.2655 67.0355 41.0201 67.0319 40.7716H72.5078C72.5282 40.5113 72.5282 40.2497 72.5078 39.9894C72.534 39.4767 72.4608 38.9639 72.2928 38.4823C72.1248 38.0007 71.8655 37.5605 71.5309 37.1888C71.1963 36.8171 70.7934 36.5217 70.3469 36.3207C69.9005 36.1198 69.42 36.0175 68.9348 36.0203C67.8964 36.0203 66.9006 36.4567 66.1663 37.2337C65.4321 38.0106 65.0196 39.0644 65.0196 40.1632C65.0196 41.262 65.4321 42.3157 66.1663 43.0927C66.9006 43.8696 67.8964 44.3061 68.9348 44.3061C69.714 44.3377 70.481 44.0944 71.1154 43.6146C71.7497 43.1348 72.2154 42.4456 72.4394 41.6552H72.412ZM78.9009 44.1758H80.9818L82.3507 38.5698L83.7197 44.1758H85.7868L88.1004 36.1506H86.266L84.897 42.2491L83.528 36.1506H81.502L80.0509 42.2636L78.6819 36.1506H76.7379L78.9009 44.1758ZM98.4498 41.887C98.4498 38.9898 94.1923 39.859 94.1923 38.3959C94.1923 37.9324 94.5619 37.6282 95.2738 37.6282C95.4222 37.6079 95.5728 37.6188 95.7172 37.6603C95.8616 37.7017 95.9968 37.773 96.1151 37.8699C96.2334 37.9668 96.3324 38.0874 96.4065 38.2249C96.4806 38.3625 96.5283 38.5141 96.5469 38.6712H98.3814C98.3526 38.2821 98.2498 37.9032 98.0792 37.5571C97.9086 37.2111 97.6737 36.9051 97.3886 36.6576C97.1035 36.41 96.7741 36.2259 96.4201 36.1164C96.0661 36.0069 95.6948 35.9742 95.3286 36.0203C93.4531 36.0203 92.3305 37.0922 92.3305 38.4249C92.3305 41.3221 96.6154 40.4529 96.6154 41.887C96.6154 42.3505 96.2047 42.7127 95.4518 42.7127C95.1382 42.7478 94.8236 42.6571 94.5701 42.4587C94.3166 42.2602 94.1427 41.9683 94.0828 41.6407H92.2073C92.3228 42.454 92.7336 43.1875 93.3522 43.6853C93.9709 44.1831 94.7487 44.4058 95.5202 44.3061C97.3136 44.3061 98.4498 43.2631 98.4498 41.887ZM105.418 37.3095V36.1506H103.501V48H105.418V43.0314C105.715 43.4362 106.098 43.7621 106.535 43.9834C106.972 44.2047 107.452 44.3152 107.937 44.3061C108.426 44.287 108.907 44.1618 109.35 43.9383C109.792 43.7149 110.186 43.398 110.508 43.007C110.83 42.6161 111.073 42.1595 111.222 41.6654C111.37 41.1713 111.422 40.6502 111.373 40.1342C111.42 39.6204 111.367 39.1018 111.216 38.6108C111.065 38.1199 110.82 37.6672 110.496 37.281C110.172 36.8949 109.777 36.5836 109.334 36.3666C108.891 36.1497 108.411 36.0318 107.923 36.0203C107.439 36.0094 106.959 36.1207 106.523 36.3449C106.088 36.569 105.709 36.8997 105.418 37.3095ZM109.429 40.2066C109.392 40.6169 109.243 41.0069 109.001 41.3294C108.758 41.6519 108.433 41.8931 108.063 42.0236C107.694 42.1541 107.296 42.1684 106.92 42.0648C106.543 41.9611 106.202 41.744 105.94 41.4396C105.677 41.1353 105.503 40.7569 105.44 40.3503C105.377 39.9437 105.426 39.5263 105.583 39.1489C105.739 38.7715 105.995 38.4502 106.321 38.2239C106.647 37.9977 107.027 37.8763 107.417 37.8744C107.692 37.8739 107.964 37.933 108.216 38.0481C108.469 38.1631 108.696 38.3317 108.885 38.5435C109.074 38.7552 109.219 39.0056 109.313 39.2792C109.406 39.5528 109.446 39.8438 109.429 40.1342V40.2066ZM115.781 40.2066C115.734 40.7234 115.787 41.2448 115.938 41.739C116.088 42.2331 116.332 42.6895 116.655 43.0802C116.978 43.4709 117.373 43.7875 117.816 44.0108C118.259 44.2341 118.741 44.3592 119.231 44.3786C119.719 44.3962 120.205 44.2866 120.644 44.0592C121.083 43.8319 121.463 43.4939 121.75 43.0748V44.1758H123.694V36.1506H121.763V37.295C121.474 36.8843 121.095 36.5538 120.659 36.3318C120.223 36.1098 119.742 36.0029 119.258 36.0203C118.768 36.0278 118.285 36.1429 117.839 36.3581C117.393 36.5733 116.994 36.884 116.667 37.2706C116.34 37.6571 116.093 38.1112 115.94 38.6041C115.788 39.097 115.734 39.618 115.781 40.1342V40.2066ZM121.75 40.2066C121.776 40.5042 121.744 40.8044 121.655 41.0882C121.566 41.3719 121.423 41.6331 121.234 41.855C121.045 42.077 120.814 42.255 120.556 42.3777C120.299 42.5004 120.02 42.5651 119.737 42.5678C119.455 42.5592 119.177 42.4894 118.921 42.3626C118.665 42.2359 118.436 42.0549 118.249 41.8309C118.061 41.6069 117.919 41.3446 117.832 41.0602C117.744 40.7759 117.712 40.4755 117.739 40.1777C117.716 39.8843 117.75 39.589 117.841 39.3105C117.931 39.0321 118.075 38.7765 118.264 38.5599C118.452 38.3432 118.681 38.1704 118.936 38.0521C119.191 37.9338 119.466 37.8728 119.744 37.8728C120.022 37.8728 120.298 37.9338 120.552 38.0521C120.807 38.1704 121.036 38.3432 121.225 38.5599C121.413 38.7765 121.557 39.0321 121.647 39.3105C121.738 39.589 121.773 39.8843 121.75 40.1777V40.2066ZM130.963 37.3095V36.1506H129.046V48H130.963V43.0314C131.258 43.4359 131.638 43.7619 132.073 43.9832C132.508 44.2046 132.985 44.3152 133.468 44.3061C133.96 44.2908 134.444 44.1685 134.889 43.9468C135.335 43.725 135.732 43.4086 136.057 43.0173C136.382 42.6259 136.628 42.168 136.778 41.672C136.928 41.176 136.981 40.6525 136.932 40.1342C136.979 39.6192 136.925 39.0994 136.773 38.6075C136.622 38.1156 136.375 37.6622 136.05 37.2758C135.725 36.8894 135.327 36.5784 134.883 36.3624C134.439 36.1463 133.957 36.0298 133.468 36.0203C132.983 36.007 132.503 36.1172 132.067 36.3416C131.631 36.566 131.252 36.8979 130.963 37.3095ZM134.974 40.2066C134.998 40.5052 134.965 40.8059 134.875 41.0903C134.786 41.3747 134.643 41.6368 134.454 41.8606C134.266 42.0843 134.036 42.2651 133.78 42.3917C133.523 42.5182 133.245 42.5881 132.962 42.5968C132.412 42.5323 131.905 42.2558 131.536 41.8202C131.168 41.3845 130.964 40.8203 130.964 40.2356C130.964 39.6509 131.168 39.0867 131.536 38.6511C131.905 38.2154 132.412 37.9389 132.962 37.8744C133.236 37.876 133.507 37.9365 133.759 38.0523C134.01 38.168 134.237 38.3367 134.425 38.548C134.614 38.7593 134.759 39.0089 134.853 39.2815C134.948 39.5542 134.989 39.8443 134.974 40.1342V40.2066ZM145.077 37.7586C145.304 37.7408 145.531 37.7719 145.746 37.8499C145.962 37.9278 146.159 38.051 146.328 38.2121C146.497 38.3732 146.633 38.5688 146.729 38.7871C146.824 39.0054 146.877 39.2419 146.884 39.4824H143.284C143.301 38.9944 143.499 38.5331 143.834 38.1974C144.169 37.8617 144.615 37.6782 145.077 37.6861V37.7586ZM148.677 41.7277H146.61C146.48 42.0336 146.265 42.2904 145.993 42.4638C145.722 42.6372 145.407 42.7189 145.091 42.6982C144.856 42.704 144.622 42.6605 144.403 42.5702C144.184 42.48 143.985 42.3448 143.815 42.1724C143.646 42 143.511 41.7939 143.417 41.5659C143.323 41.3379 143.273 41.0926 143.27 40.844H148.746C148.766 40.5837 148.766 40.3221 148.746 40.0618C148.773 39.5341 148.696 39.0063 148.518 38.5125C148.34 38.0187 148.066 37.57 147.713 37.1957C147.361 36.8213 146.938 36.5297 146.472 36.3396C146.006 36.1496 145.507 36.0655 145.008 36.0927C143.97 36.0927 142.974 36.5292 142.24 37.3061C141.506 38.0831 141.093 39.1368 141.093 40.2356C141.093 41.3344 141.506 42.3882 142.24 43.1651C142.974 43.9421 143.97 44.3786 145.008 44.3786C145.824 44.4466 146.636 44.212 147.306 43.715C147.975 43.218 148.46 42.4896 148.677 41.6552V41.7277ZM155.673 40.2791C155.673 38.7291 156.357 38.2656 157.493 38.2656H158V36.0347C157.533 36.0222 157.071 36.1418 156.662 36.3812C156.253 36.6205 155.911 36.971 155.673 37.3964V36.1506H153.811V44.1758H155.728L155.673 40.2791Z" fill="#EDEDED"/>
<path d="M66.09 30H71.89V18.92C71.89 13.82 68.96 10.82 64.58 10.82C63.4749 10.7871 62.3776 11.0164 61.3782 11.4892C60.3788 11.962 59.5055 12.6647 58.83 13.54V11H53V30H58.81V19.7C58.81 17.11 60.24 15.7 62.45 15.7C64.66 15.7 66.09 17.12 66.09 19.7V30ZM84.27 15.41C84.7276 15.3623 85.1901 15.4114 85.6274 15.5541C86.0648 15.6968 86.4673 15.93 86.8087 16.2383C87.1501 16.5467 87.4228 16.9235 87.6091 17.3442C87.7954 17.7648 87.8911 18.2199 87.89 18.68H80.57C80.6537 17.766 81.0833 16.9185 81.771 16.3107C82.4587 15.7029 83.3526 15.3807 84.27 15.41V15.41ZM93.35 23.71H87.16C86.9077 24.2864 86.485 24.7717 85.9487 25.1007C85.4123 25.4296 84.7881 25.5864 84.16 25.55C82.29 25.55 80.76 24.39 80.55 21.91H93.69C93.757 21.3458 93.7904 20.7782 93.79 20.21C93.79 14.43 89.88 10.76 84.34 10.76C78.8 10.76 74.75 14.5 74.75 20.51C74.75 26.52 78.75 30.27 84.34 30.27C89.07 30.27 92.43 27.42 93.35 23.71ZM105.22 15.41C105.674 15.3697 106.131 15.4244 106.562 15.5705C106.993 15.7165 107.39 15.9508 107.725 16.2585C108.061 16.5661 108.329 16.9402 108.513 17.3572C108.696 17.7741 108.79 18.2246 108.79 18.68H101.52C101.604 17.766 102.033 16.9185 102.721 16.3107C103.409 15.7029 104.303 15.3807 105.22 15.41ZM114.3 23.71H108.11C107.858 24.2864 107.435 24.7717 106.899 25.1007C106.362 25.4296 105.738 25.5864 105.11 25.55C103.24 25.55 101.71 24.39 101.5 21.91H114.66C114.727 21.3458 114.76 20.7782 114.76 20.21C114.76 14.43 110.85 10.76 105.31 10.76C99.77 10.76 95.72 14.5 95.72 20.51C95.72 26.52 99.72 30.27 105.31 30.27C110.02 30.27 113.38 27.42 114.3 23.71ZM136.38 20.51C136.38 14.51 132.09 10.76 126.51 10.76C120.93 10.76 116.65 14.5 116.65 20.51C116.65 26.52 120.87 30.27 126.45 30.27C132.03 30.27 136.38 26.53 136.38 20.51ZM122.57 20.51C122.57 17.28 124.41 15.79 126.51 15.79C128.61 15.79 130.46 17.28 130.46 20.51C130.46 23.74 128.52 25.24 126.46 25.24C124.4 25.24 122.57 23.71 122.57 20.51ZM152.57 30H158.35V18.92C158.35 13.82 155.42 10.82 151.04 10.82C149.935 10.7871 148.838 11.0164 147.838 11.4892C146.839 11.962 145.966 12.6647 145.29 13.54V11H139.48V30H145.29V19.7C145.29 17.11 146.72 15.7 148.93 15.7C151.14 15.7 152.57 17.12 152.57 19.7V30Z" fill="white"/>
</g>
<defs>
<linearGradient id="paint0_linear_905_55" x1="36.41" y1="4.56003" x2="7.86997" y2="44.15" gradientUnits="userSpaceOnUse">
<stop stop-color="#003CFF"/>
<stop offset="1" stop-color="#007AFF" stop-opacity="0.87"/>
</linearGradient>
<clipPath id="clip0_905_55">
<rect width="159.11" height="50.64" fill="white"/>
</clipPath>
</defs>
</svg>
